<svg width="80" height="80" viewBox="0 0 80 80" fill="none" xmlns="http://www.w3.org/2000/svg">
<circle cx="40" cy="40" r="40" fill="white"/>
<path d="M4.62268 50.8713V48.1019C4.62268 46.1323 5.67532 44.4977 7.78059 43.1983C9.88591 41.899 12.5957 41.2493 15.9099 41.2493C16.3992 41.2493 16.9235 41.2729 17.4827 41.3203C18.0419 41.3676 18.6361 41.4446 19.2652 41.5516C18.7636 42.4274 18.3976 43.3259 18.1673 44.2469C17.9371 45.168 17.8219 46.0911 17.8219 47.0163V50.8713H4.62268ZM23.8665 50.8713V47.263C23.8665 45.9704 24.2417 44.7889 24.9921 43.7185C25.7425 42.648 26.8497 41.7222 28.3135 40.941C29.7773 40.1597 31.4828 39.5737 33.4297 39.183C35.3767 38.7924 37.5262 38.5972 39.8783 38.5972C42.2756 38.5972 44.4477 38.7924 46.3947 39.183C48.3417 39.5737 50.0471 40.1597 51.5109 40.941C52.9748 41.7222 54.0788 42.648 54.8231 43.7185C55.5673 44.7889 55.9395 45.9704 55.9395 47.263V50.8713H23.8665ZM61.984 50.8713V47.0348C61.984 46.0117 61.8719 45.0477 61.6478 44.1426C61.4237 43.2377 61.0876 42.374 60.6393 41.5516C61.3096 41.4446 61.911 41.3676 62.4435 41.3203C62.976 41.2729 63.4807 41.2493 63.9577 41.2493C67.2719 41.2493 69.9714 41.8959 72.0561 43.1891C74.1409 44.4823 75.1832 46.1199 75.1832 48.1019V50.8713H61.984ZM15.8935 38.227C14.6339 38.227 13.561 37.7802 12.6748 36.8863C11.7887 35.9925 11.3457 34.918 11.3457 33.6628C11.3457 32.421 11.7926 31.3601 12.6864 30.4802C13.5802 29.6002 14.6547 29.1602 15.9099 29.1602C17.1517 29.1602 18.2229 29.6002 19.1234 30.4802C20.0239 31.3601 20.4741 32.4272 20.4741 33.6813C20.4741 34.8984 20.0351 35.9604 19.1572 36.8671C18.2793 37.7737 17.1914 38.227 15.8935 38.227ZM63.9577 38.227C62.7282 38.227 61.6601 37.7737 60.7534 36.8671C59.8468 35.9604 59.3935 34.8984 59.3935 33.6813C59.3935 32.4272 59.8468 31.3601 60.7534 30.4802C61.6601 29.6002 62.7322 29.1602 63.9697 29.1602C65.2446 29.1602 66.3221 29.6002 67.202 30.4802C68.082 31.3601 68.5219 32.421 68.5219 33.6628C68.5219 34.918 68.0845 35.9925 67.2097 36.8863C66.3349 37.7802 65.2509 38.227 63.9577 38.227ZM39.9247 36.1917C37.9776 36.1917 36.3153 35.5081 34.9378 34.1409C33.5603 32.7736 32.8715 31.1134 32.8715 29.1602C32.8715 27.168 33.5551 25.498 34.9223 24.1504C36.2896 22.8027 37.9498 22.1289 39.903 22.1289C41.8952 22.1289 43.5651 22.8006 44.9128 24.1441C46.2605 25.4877 46.9344 27.1525 46.9344 29.1385C46.9344 31.0856 46.2626 32.7479 44.9191 34.1254C43.5756 35.5029 41.9108 36.1917 39.9247 36.1917Z" fill="black" fill-opacity="0.501961"/>
</svg>
