<svg width="80" height="80" viewBox="0 0 80 80" fill="none" xmlns="http://www.w3.org/2000/svg">
<circle cx="40" cy="40" r="40" fill="white"/>
<path d="M19.0531 53.6544C17.6959 53.6544 16.5627 53.1998 15.6535 52.2906C14.7442 51.3815 14.2896 50.2482 14.2896 48.8909V20.0828C14.2896 18.7255 14.7442 17.5923 15.6535 16.683C16.5627 15.7738 17.6959 15.3191 19.0531 15.3191H62.6056C63.9629 15.3191 65.0961 15.7738 66.0053 16.683C66.9145 17.5923 67.3692 18.7255 67.3692 20.0828V48.8909C67.3692 50.2482 66.9145 51.3815 66.0053 52.2906C65.0961 53.1998 63.9629 53.6544 62.6056 53.6544H19.0531ZM10.6602 59.5522V56.6033H70.9986V59.5522H10.6602Z" fill="black" fill-opacity="0.501961"/>
</svg>
