<svg width="44" height="44" viewBox="0 0 44 44" fill="none" xmlns="http://www.w3.org/2000/svg">
<g filter="url(#filter0_d_4_336)">
<path d="M22 36C19.5701 36 17.2128 35.524 14.9936 34.5854C12.8501 33.6787 10.9251 32.381 9.2721 30.7278C7.61905 29.075 6.32117 27.1498 5.41454 25.0063C4.47592 22.7872 4 20.4299 4 18C4 15.5699 4.47592 13.2128 5.41454 10.9937C6.32112 8.85022 7.61899 6.92517 9.2721 5.27197C10.9253 3.6189 12.8503 2.32092 14.9936 1.41443C17.2128 0.475952 19.5701 0 22 0C24.4299 0 26.7872 0.475952 29.0064 1.41443C31.1497 2.32092 33.0747 3.6189 34.7279 5.27197C36.381 6.92517 37.6789 8.85022 38.5855 10.9937C39.5241 13.2128 40 15.5699 40 18C40 20.4299 39.5241 22.7872 38.5855 25.0063C37.6788 27.1498 36.381 29.075 34.7279 30.7278C33.0749 32.381 31.1499 33.6787 29.0064 34.5854C26.7872 35.524 24.4299 36 22 36ZM22.4037 6.07812C21.7787 6.07812 21.1878 6.32483 20.7399 6.77271C20.2644 7.24817 20.0375 7.80017 20.0462 8.46033C20.0502 9.03235 20.1951 9.46533 20.5304 9.90808C20.6247 10.0331 21.9281 11.1299 24.0169 12.8419L27.3495 15.5706L9.2465 15.7076C8.21146 16.0986 7.57103 17.0679 7.65311 18.1191C7.73016 19.1185 8.34361 19.8959 9.33618 20.2523C9.52698 20.3204 27.2647 20.3677 27.4438 20.368L24.0424 22.8096C22.1707 24.1519 20.5394 25.3527 20.406 25.4867C19.6496 26.2472 19.5208 27.4956 20.1063 28.3906C20.4228 28.8779 20.9004 29.248 21.4168 29.4059C21.5925 29.4618 21.8625 29.4951 22.1389 29.4951C22.3292 29.4951 22.5049 29.4786 22.6335 29.4487C22.7902 29.4141 23.0303 29.3276 23.1687 29.2562C23.3074 29.1884 24.6716 28.2314 26.2097 27.1228C27.6536 26.0834 30.4388 24.0828 32.4207 22.6638C34.6557 21.0625 35.9385 20.1146 36.1305 19.9226C36.9564 19.092 37.0285 17.7878 36.3018 16.8214C36.1036 16.5536 23.9438 6.59448 23.5459 6.37402C23.1944 6.18042 22.7991 6.07812 22.4037 6.07812Z" fill="white"/>
</g>
<defs>
<filter id="filter0_d_4_336" x="0" y="0" width="44" height="44" filterUnits="userSpaceOnUse" color-interpolation-filters="sRGB">
<feFlood flood-opacity="0" result="BackgroundImageFix"/>
<feColorMatrix in="SourceAlpha" type="matrix" values="0 0 0 0 0 0 0 0 0 0 0 0 0 0 0 0 0 0 127 0" result="hardAlpha"/>
<feOffset dy="4"/>
<feGaussianBlur stdDeviation="2"/>
<feComposite in2="hardAlpha" operator="out"/>
<feColorMatrix type="matrix" values="0 0 0 0 0 0 0 0 0 0 0 0 0 0 0 0 0 0 0.25 0"/>
<feBlend mode="normal" in2="BackgroundImageFix" result="effect1_dropShadow_4_336"/>
<feBlend mode="normal" in="SourceGraphic" in2="effect1_dropShadow_4_336" result="shape"/>
</filter>
</defs>
</svg>
