<svg width="80" height="80" viewBox="0 0 80 80" fill="none" xmlns="http://www.w3.org/2000/svg">
<circle cx="40" cy="40" r="40" fill="white"/>
<path d="M40 31.0041C36.6539 31.0041 33.7895 29.8126 31.4067 27.4299C29.0239 25.047 27.8325 22.1826 27.8325 18.8365C27.8325 15.4904 29.0239 12.626 31.4067 10.2432C33.7895 7.86035 36.6539 6.66895 40 6.66895C43.3461 6.66895 46.2105 7.86035 48.5933 10.2432C50.9761 12.626 52.1675 15.4904 52.1675 18.8365C52.1675 22.1826 50.9761 25.047 48.5933 27.4299C46.2105 29.8126 43.3461 31.0041 40 31.0041ZM11.6091 60.3309V53.6543C11.6091 51.98 12.0966 50.4136 13.0716 48.955C14.0465 47.4965 15.3582 46.3642 17.0065 45.5582C20.8336 43.7227 24.6632 42.3461 28.4954 41.4283C32.3277 40.5105 36.1626 40.0516 40 40.0516C43.8374 40.0516 47.6723 40.5105 51.5046 41.4283C55.3368 42.3461 59.1664 43.7227 62.9935 45.5582C64.6418 46.3642 65.9535 47.4965 66.9284 48.955C67.9034 50.4136 68.3909 51.98 68.3909 53.6543V60.3309H11.6091Z" fill="black" fill-opacity="0.501961"/>
</svg>
