<svg width="80" height="80" viewBox="0 0 80 80" fill="none" xmlns="http://www.w3.org/2000/svg">
<circle cx="40" cy="40" r="40" fill="white"/>
<path d="M15.866 62.6755V59.2278H21.4353V31.9113C21.4353 27.4071 22.8608 23.4456 25.7119 20.0266C28.5629 16.6075 32.1763 14.4781 36.5523 13.6383V11.7554C36.5523 10.7976 36.8867 9.98358 37.5556 9.31317C38.2244 8.64282 39.0367 8.30762 39.9922 8.30762C40.9478 8.30762 41.7626 8.64282 42.4366 9.31317C43.1107 9.98358 43.4477 10.7976 43.4477 11.7554V13.6383C47.8237 14.4781 51.4371 16.6075 54.2881 20.0266C57.1392 23.4456 58.5647 27.4071 58.5647 31.9113V59.2278H64.134V62.6755H15.866ZM39.9883 71.6926C38.4535 71.6926 37.1435 71.1473 36.0583 70.0566C34.9732 68.9659 34.4306 67.6548 34.4306 66.1232H45.5694C45.5694 67.6658 45.0229 68.9797 43.93 70.0649C42.837 71.1501 41.5231 71.6926 39.9883 71.6926Z" fill="black" fill-opacity="0.501961"/>
</svg>
