<svg width="80" height="80" viewBox="0 0 80 80" fill="none" xmlns="http://www.w3.org/2000/svg">
<circle cx="40" cy="40" r="40" fill="white"/>
<path d="M14.0328 64.0001C12.5867 64.0001 11.3681 63.5048 10.3768 62.5137C9.38565 61.5222 8.89005 60.3035 8.89005 58.8575V21.5386C8.89005 20.0927 9.45159 18.808 10.5747 17.6846C11.6977 16.5618 12.9823 16.0001 14.4284 16.0001H31.5054L38.3625 22.8575H65.066C66.2483 22.8575 67.2802 23.1772 68.1615 23.8165C69.0429 24.4564 69.6594 25.2794 70.0111 26.2861H12.3186V58.462C12.3186 58.9454 12.4395 59.3411 12.6813 59.6488C12.923 59.9565 13.2417 60.2202 13.6373 60.4401L21.4044 34.4619H77L69.2264 60.3672C68.9011 61.4573 68.278 62.3356 67.3571 63.0012C66.4362 63.6672 65.4088 64.0001 64.2748 64.0001H14.0328Z" fill="black" fill-opacity="0.501961"/>
</svg>
