<svg width="54" height="54" viewBox="0 0 54 54" fill="none" xmlns="http://www.w3.org/2000/svg">
<path d="M27 24C24.5674 24 22.485 23.1188 20.7527 21.3563C19.0204 19.5938 18.1543 17.475 18.1543 15C18.1543 12.525 19.0204 10.4062 20.7527 8.64374C22.485 6.88129 24.5674 6 27 6C29.4326 6 31.515 6.88129 33.2473 8.64374C34.9796 10.4062 35.8457 12.525 35.8457 15C35.8457 17.475 34.9796 19.5938 33.2473 21.3563C31.515 23.1188 29.4326 24 27 24ZM9.30859 42V35.7C9.30859 34.425 9.63109 33.2531 10.2761 32.1844C10.9211 31.1156 11.778 30.3 12.8469 29.7375C15.132 28.575 17.454 27.7031 19.8129 27.1219C22.1717 26.5406 24.5674 26.25 27 26.25C29.4326 26.25 31.8283 26.5406 34.1871 27.1219C36.546 27.7031 38.868 28.575 41.1531 29.7375C42.222 30.3 43.0789 31.1156 43.7239 32.1844C44.3689 33.2531 44.6914 34.425 44.6914 35.7V42H9.30859Z" fill="white"/>
<circle cx="27" cy="27" r="26" stroke="white" stroke-width="2"/>
</svg>
